<?xml version="1.0" encoding="UTF-8" standalone="no"?>
<!-- Created with Inkscape (http://www.inkscape.org/) -->

<svg
   width="200"
   height="200"
   viewBox="0 0 52.916665 52.916666"
   version="1.1"
   id="svg1"
   xml:space="preserve"
   sodipodi:docname="logo.svg"
   inkscape:version="1.4.2 (ebf0e94, 2025-05-08)"
   inkscape:export-filename="logo.png"
   inkscape:export-xdpi="96"
   inkscape:export-ydpi="96"
   xmlns:inkscape="http://www.inkscape.org/namespaces/inkscape"
   xmlns:sodipodi="http://sodipodi.sourceforge.net/DTD/sodipodi-0.dtd"
   xmlns:xlink="http://www.w3.org/1999/xlink"
   xmlns="http://www.w3.org/2000/svg"
   xmlns:svg="http://www.w3.org/2000/svg"><sodipodi:namedview
     id="namedview1"
     pagecolor="#505050"
     bordercolor="#ffffff"
     borderopacity="1"
     inkscape:showpageshadow="0"
     inkscape:pageopacity="0"
     inkscape:pagecheckerboard="1"
     inkscape:deskcolor="#505050"
     inkscape:document-units="mm"
     showgrid="false"
     inkscape:zoom="3.0039562"
     inkscape:cx="95.707121"
     inkscape:cy="88.71634"
     inkscape:window-width="1920"
     inkscape:window-height="1054"
     inkscape:window-x="0"
     inkscape:window-y="0"
     inkscape:window-maximized="1"
     inkscape:current-layer="svg1"><inkscape:grid
       id="grid1"
       units="mm"
       originx="0"
       originy="0"
       spacingx="0.99999997"
       spacingy="0.99999999"
       empcolor="#0099e5"
       empopacity="0.30196078"
       color="#0099e5"
       opacity="0.14901961"
       empspacing="5"
       enabled="true"
       visible="false" /></sodipodi:namedview><defs
     id="defs1"><linearGradient
       id="linearGradient1"
       inkscape:collect="always"><stop
         style="stop-color:#3b3b3b;stop-opacity:1;"
         offset="0"
         id="stop1" /><stop
         style="stop-color:#131313;stop-opacity:1;"
         offset="1"
         id="stop2" /></linearGradient><linearGradient
       id="linearGradient3"
       inkscape:collect="always"><stop
         style="stop-color:#7728d9;stop-opacity:1;"
         offset="0"
         id="stop3" /><stop
         style="stop-color:#1f064f;stop-opacity:1;"
         offset="1"
         id="stop4" /></linearGradient><radialGradient
       inkscape:collect="always"
       xlink:href="#linearGradient3"
       id="radialGradient4"
       cx="480"
       cy="-487"
       fx="480"
       fy="-487"
       r="400"
       gradientTransform="matrix(0.91937164,0,0,0.84352348,38.701612,-76.204065)"
       gradientUnits="userSpaceOnUse" /><filter
       style="color-interpolation-filters:sRGB;"
       inkscape:label="Drop Shadow"
       id="filter43"
       x="-0.10441914"
       y="-0.11380833"
       width="1.2523463"
       height="1.2750368"><feFlood
         result="flood"
         in="SourceGraphic"
         flood-opacity="0.498039"
         flood-color="rgb(0,0,0)"
         id="feFlood42" /><feGaussianBlur
         result="blur"
         in="SourceGraphic"
         stdDeviation="16.000000"
         id="feGaussianBlur42" /><feOffset
         result="offset"
         in="blur"
         dx="16.000000"
         dy="16.000000"
         id="feOffset42" /><feComposite
         result="comp1"
         operator="out"
         in="flood"
         in2="offset"
         id="feComposite42" /><feComposite
         result="fbSourceGraphic"
         operator="atop"
         in="comp1"
         in2="SourceGraphic"
         id="feComposite43" /><feColorMatrix
         result="fbSourceGraphicAlpha"
         in="fbSourceGraphic"
         values="0 0 0 -1 0 0 0 0 -1 0 0 0 0 -1 0 0 0 0 1 0"
         id="feColorMatrix43" /><feFlood
         id="feFlood43"
         result="flood"
         in="fbSourceGraphic"
         flood-opacity="0.498039"
         flood-color="rgb(0,0,0)" /><feGaussianBlur
         id="feGaussianBlur43"
         result="blur"
         in="fbSourceGraphic"
         stdDeviation="16.000000" /><feOffset
         id="feOffset43"
         result="offset"
         in="blur"
         dx="16.000000"
         dy="16.000000" /><feComposite
         id="feComposite44"
         result="comp1"
         operator="out"
         in="flood"
         in2="offset" /><feComposite
         id="feComposite45"
         result="comp2"
         operator="atop"
         in="comp1"
         in2="fbSourceGraphic" /></filter><filter
       style="color-interpolation-filters:sRGB;"
       inkscape:label="Drop Shadow"
       id="filter50"
       x="-0.03"
       y="-0.03"
       width="1.0725"
       height="1.0725"><feFlood
         result="flood"
         in="SourceGraphic"
         flood-opacity="0.498039"
         flood-color="rgb(0,0,0)"
         id="feFlood49" /><feGaussianBlur
         result="blur"
         in="SourceGraphic"
         stdDeviation="8.000000"
         id="feGaussianBlur49" /><feOffset
         result="offset"
         in="blur"
         dx="8.000000"
         dy="8.000000"
         id="feOffset49" /><feComposite
         result="comp1"
         operator="out"
         in="flood"
         in2="offset"
         id="feComposite49" /><feComposite
         result="comp2"
         operator="atop"
         in="comp1"
         in2="SourceGraphic"
         id="feComposite50" /></filter><linearGradient
       inkscape:collect="always"
       xlink:href="#linearGradient1"
       id="linearGradient2"
       x1="0.79270464"
       y1="0.91562909"
       x2="52.476276"
       y2="52.353352"
       gradientUnits="userSpaceOnUse" /></defs><rect
     style="display:none;fill:url(#linearGradient2);stroke-width:0.264583"
     id="rect1"
     width="52.916668"
     height="52.916668"
     x="0"
     y="0" /><g
     inkscape:label="layer_1"
     inkscape:groupmode="layer"
     id="layer1"
     style="display:inline"><g
       id="g2"
       transform="matrix(0.77111758,0,0,0.77111758,5.3213584,5.52067)"><path
         d="m 480,-149.59061 -53.32356,-47.80732 c -61.90435,-55.77522 -113.08271,-103.889 -153.53506,-144.34135 -40.45235,-40.45235 -72.63036,-76.76753 -96.53402,-108.94554 -23.90366,-32.17801 -40.60559,-61.75113 -50.10576,-88.71936 -9.50017,-26.96824 -14.25026,-54.54938 -14.25026,-82.74345 0,-57.61396 19.30681,-105.72774 57.92042,-144.34135 38.61361,-38.61361 86.72739,-57.92041 144.34134,-57.92041 31.87156,0 62.21082,6.74205 91.0178,20.22617 28.80697,13.48412 53.63001,32.48447 74.4691,57.00105 20.83909,-24.51658 45.66213,-43.51693 74.4691,-57.00105 28.80698,-13.48412 59.14624,-20.22617 91.0178,-20.22617 57.61395,0 105.72773,19.3068 144.34134,57.92041 38.61361,38.61361 57.92042,86.72739 57.92042,144.34135 0,28.19407 -4.75009,55.77521 -14.25026,82.74345 -9.50017,26.96823 -26.2021,56.54135 -50.10576,88.71936 -23.90366,32.17801 -56.08167,68.49319 -96.53402,108.94554 -40.45235,40.45235 -91.63071,88.56613 -153.53506,144.34135 z"
         id="path1"
         sodipodi:nodetypes="ccssssssscssssssscc"
         style="fill:url(#radialGradient4);stroke-width:0.919372;filter:url(#filter43)"
         transform="matrix(0.05277504,0,0,0.05277504,1.2344125,52.009405)"
         inkscape:label="heart" /><path
         d="m 160,-160 v -80 h 110 l -16,-14 q -52,-46 -73,-105 -21,-59 -21,-119 0,-111 66.5,-197.5 Q 293,-762 400,-790 v 84 q -72,26 -116,88.5 -44,62.5 -44,139.5 0,45 17,87.5 17,42.5 53,78.5 l 10,10 v -98 h 80 v 240 z m 400,-10 v -84 q 72,-26 116,-88.5 44,-62.5 44,-139.5 0,-45 -17,-87.5 -17,-42.5 -53,-78.5 l -10,-10 v 98 h -80 v -240 h 240 v 80 H 690 l 16,14 q 49,49 71.5,106.5 22.5,57.5 22.5,117.5 0,111 -66.5,197.5 Q 667,-198 560,-170 Z"
         id="path1-1"
         style="fill:#e3e3e3;filter:url(#filter50)"
         transform="matrix(0.03075262,0,0,0.03075262,20.93833,49.493451)"
         inkscape:label="refresh" /></g></g></svg>
