<?xml version="1.0" encoding="UTF-8" standalone="no"?>
<!-- Created with Inkscape (http://www.inkscape.org/) -->

<svg
   width="200"
   height="200"
   viewBox="0 0 52.916665 52.916666"
   version="1.1"
   id="svg1"
   xml:space="preserve"
   sodipodi:docname="logo_monochrome.svg"
   inkscape:version="1.4.2 (ebf0e94, 2025-05-08)"
   inkscape:export-filename="logo.png"
   inkscape:export-xdpi="96"
   inkscape:export-ydpi="96"
   xmlns:inkscape="http://www.inkscape.org/namespaces/inkscape"
   xmlns:sodipodi="http://sodipodi.sourceforge.net/DTD/sodipodi-0.dtd"
   xmlns="http://www.w3.org/2000/svg"
   xmlns:svg="http://www.w3.org/2000/svg"><sodipodi:namedview
     id="namedview1"
     pagecolor="#505050"
     bordercolor="#ffffff"
     borderopacity="1"
     inkscape:showpageshadow="0"
     inkscape:pageopacity="0"
     inkscape:pagecheckerboard="1"
     inkscape:deskcolor="#505050"
     inkscape:document-units="mm"
     showgrid="false"
     inkscape:zoom="3.0039562"
     inkscape:cx="96.040015"
     inkscape:cy="105.36106"
     inkscape:window-width="1920"
     inkscape:window-height="1054"
     inkscape:window-x="0"
     inkscape:window-y="0"
     inkscape:window-maximized="1"
     inkscape:current-layer="layer1"><inkscape:grid
       id="grid1"
       units="mm"
       originx="0"
       originy="0"
       spacingx="0.99999997"
       spacingy="0.99999999"
       empcolor="#0099e5"
       empopacity="0.30196078"
       color="#0099e5"
       opacity="0.14901961"
       empspacing="5"
       enabled="true"
       visible="false" /></sodipodi:namedview><defs
     id="defs1"><filter
       style="color-interpolation-filters:sRGB;"
       inkscape:label="Drop Shadow"
       id="filter43"
       x="-0.10441914"
       y="-0.11380833"
       width="1.2523463"
       height="1.2750368"><feFlood
         result="flood"
         in="SourceGraphic"
         flood-opacity="0.498039"
         flood-color="rgb(0,0,0)"
         id="feFlood42" /><feGaussianBlur
         result="blur"
         in="SourceGraphic"
         stdDeviation="16.000000"
         id="feGaussianBlur42" /><feOffset
         result="offset"
         in="blur"
         dx="16.000000"
         dy="16.000000"
         id="feOffset42" /><feComposite
         result="comp1"
         operator="out"
         in="flood"
         in2="offset"
         id="feComposite42" /><feComposite
         result="fbSourceGraphic"
         operator="atop"
         in="comp1"
         in2="SourceGraphic"
         id="feComposite43" /><feColorMatrix
         result="fbSourceGraphicAlpha"
         in="fbSourceGraphic"
         values="0 0 0 -1 0 0 0 0 -1 0 0 0 0 -1 0 0 0 0 1 0"
         id="feColorMatrix43" /><feFlood
         id="feFlood43"
         result="flood"
         in="fbSourceGraphic"
         flood-opacity="0.498039"
         flood-color="rgb(0,0,0)" /><feGaussianBlur
         id="feGaussianBlur43"
         result="blur"
         in="fbSourceGraphic"
         stdDeviation="16.000000" /><feOffset
         id="feOffset43"
         result="offset"
         in="blur"
         dx="16.000000"
         dy="16.000000" /><feComposite
         id="feComposite44"
         result="comp1"
         operator="out"
         in="flood"
         in2="offset" /><feComposite
         id="feComposite45"
         result="comp2"
         operator="atop"
         in="comp1"
         in2="fbSourceGraphic" /></filter><filter
       style="color-interpolation-filters:sRGB;"
       inkscape:label="Drop Shadow"
       id="filter50"
       x="-0.03"
       y="-0.03"
       width="1.0725"
       height="1.0725"><feFlood
         result="flood"
         in="SourceGraphic"
         flood-opacity="0.498039"
         flood-color="rgb(0,0,0)"
         id="feFlood49" /><feGaussianBlur
         result="blur"
         in="SourceGraphic"
         stdDeviation="8.000000"
         id="feGaussianBlur49" /><feOffset
         result="offset"
         in="blur"
         dx="8.000000"
         dy="8.000000"
         id="feOffset49" /><feComposite
         result="comp1"
         operator="out"
         in="flood"
         in2="offset"
         id="feComposite49" /><feComposite
         result="comp2"
         operator="atop"
         in="comp1"
         in2="SourceGraphic"
         id="feComposite50" /></filter></defs><g
     inkscape:label="layer_1"
     inkscape:groupmode="layer"
     id="layer1"><path
       id="path3"
       style="display:inline;fill:#000000;stroke-width:0.0547314"
       inkscape:label="heart"
       d="M 16.606738 6.3717041 C 13.176908 6.3717041 10.312698 7.5213559 8.0139811 9.8200724 C 5.7152651 12.118788 4.5656128 14.982999 4.5656128 18.41283 C 4.5656128 20.091258 4.8485828 21.733174 5.4141398 23.338627 C 5.9796965 24.944079 6.9738885 26.704878 8.3969035 28.620475 C 9.8199185 30.536072 11.735661 32.69769 14.14384 35.105868 C 16.552019 37.514047 19.598607 40.378257 23.28385 43.698625 L 26.458333 46.544963 L 29.632817 43.698625 C 33.31806 40.378257 36.364648 37.514047 38.772827 35.105868 C 41.181006 32.69769 43.096749 30.536072 44.519763 28.620475 C 45.942778 26.704878 46.93697 24.944079 47.502527 23.338627 C 48.068084 21.733174 48.351054 20.091258 48.351054 18.41283 C 48.351054 14.982999 47.201402 12.118788 44.902686 9.8200724 C 42.603969 7.5213559 39.739759 6.3717041 36.309928 6.3717041 C 34.412575 6.3717041 32.606569 6.7730385 30.891654 7.575765 C 29.176739 8.3784915 27.69891 9.5098542 26.458333 10.969356 C 25.217756 9.5098542 23.739927 8.3784915 22.025012 7.575765 C 20.310096 6.7730385 18.504092 6.3717041 16.606738 6.3717041 z M 28.726929 16.326652 L 35.533232 16.326652 L 35.533232 18.595247 L 32.413525 18.595247 L 32.867244 18.992122 C 33.793636 19.918514 34.469644 20.925519 34.895028 22.01261 C 35.320412 23.099702 35.533232 24.21035 35.533232 25.344706 C 35.533232 27.443266 34.904803 29.310034 33.647559 30.945398 C 32.390313 32.580762 30.749865 33.663378 28.726929 34.192745 L 28.726929 31.810461 C 30.088157 31.318907 31.184789 30.482158 32.01665 29.300537 C 32.848512 28.118916 33.264636 26.800464 33.264636 25.344706 C 33.264636 24.493939 33.103896 23.666707 32.782495 22.863204 C 32.461094 22.059702 31.959842 21.317597 31.279228 20.636983 L 30.995524 20.35328 L 30.995524 23.132438 L 28.726929 23.132438 L 28.726929 16.326652 z M 24.189738 16.610356 L 24.189738 18.992122 C 22.82851 19.483677 21.731878 20.320425 20.900016 21.502047 C 20.068155 22.683668 19.65203 24.00212 19.65203 25.457878 C 19.65203 26.308645 19.81277 27.135877 20.134172 27.93938 C 20.455572 28.742883 20.956825 29.484987 21.637439 30.165601 L 21.921143 30.449304 L 21.921143 27.670146 L 24.189738 27.670146 L 24.189738 34.476449 L 17.383435 34.476449 L 17.383435 32.207336 L 20.503141 32.207336 L 20.049422 31.810461 C 19.066313 30.940787 18.376289 29.948315 17.979264 28.832865 C 17.58224 27.717415 17.383435 26.592234 17.383435 25.457878 C 17.383435 23.359318 18.011863 21.49255 19.269108 19.857186 C 20.526353 18.221822 22.166802 17.139722 24.189738 16.610356 z " /></g></svg>
