<?xml version="1.0" encoding="UTF-8" standalone="no"?>
<!-- Created with Inkscape (http://www.inkscape.org/) -->

<svg
   width="200"
   height="200"
   viewBox="0 0 52.916665 52.916666"
   version="1.1"
   id="svg1"
   xml:space="preserve"
   sodipodi:docname="logo_monochrome.svg"
   inkscape:version="1.4.2 (ebf0e94, 2025-05-08)"
   inkscape:export-filename="logo.png"
   inkscape:export-xdpi="96"
   inkscape:export-ydpi="96"
   xmlns:inkscape="http://www.inkscape.org/namespaces/inkscape"
   xmlns:sodipodi="http://sodipodi.sourceforge.net/DTD/sodipodi-0.dtd"
   xmlns="http://www.w3.org/2000/svg"
   xmlns:svg="http://www.w3.org/2000/svg"><sodipodi:namedview
     id="namedview1"
     pagecolor="#505050"
     bordercolor="#ffffff"
     borderopacity="1"
     inkscape:showpageshadow="0"
     inkscape:pageopacity="0"
     inkscape:pagecheckerboard="1"
     inkscape:deskcolor="#505050"
     inkscape:document-units="mm"
     showgrid="false"
     inkscape:zoom="3.0039562"
     inkscape:cx="74.068989"
     inkscape:cy="105.36106"
     inkscape:window-width="1920"
     inkscape:window-height="1054"
     inkscape:window-x="0"
     inkscape:window-y="0"
     inkscape:window-maximized="1"
     inkscape:current-layer="layer1"><inkscape:grid
       id="grid1"
       units="mm"
       originx="0"
       originy="0"
       spacingx="0.99999997"
       spacingy="0.99999999"
       empcolor="#0099e5"
       empopacity="0.30196078"
       color="#0099e5"
       opacity="0.14901961"
       empspacing="5"
       enabled="true"
       visible="false" /></sodipodi:namedview><defs
     id="defs1"><filter
       style="color-interpolation-filters:sRGB;"
       inkscape:label="Drop Shadow"
       id="filter43"
       x="-0.10441914"
       y="-0.11380833"
       width="1.2523463"
       height="1.2750368"><feFlood
         result="flood"
         in="SourceGraphic"
         flood-opacity="0.498039"
         flood-color="rgb(0,0,0)"
         id="feFlood42" /><feGaussianBlur
         result="blur"
         in="SourceGraphic"
         stdDeviation="16.000000"
         id="feGaussianBlur42" /><feOffset
         result="offset"
         in="blur"
         dx="16.000000"
         dy="16.000000"
         id="feOffset42" /><feComposite
         result="comp1"
         operator="out"
         in="flood"
         in2="offset"
         id="feComposite42" /><feComposite
         result="fbSourceGraphic"
         operator="atop"
         in="comp1"
         in2="SourceGraphic"
         id="feComposite43" /><feColorMatrix
         result="fbSourceGraphicAlpha"
         in="fbSourceGraphic"
         values="0 0 0 -1 0 0 0 0 -1 0 0 0 0 -1 0 0 0 0 1 0"
         id="feColorMatrix43" /><feFlood
         id="feFlood43"
         result="flood"
         in="fbSourceGraphic"
         flood-opacity="0.498039"
         flood-color="rgb(0,0,0)" /><feGaussianBlur
         id="feGaussianBlur43"
         result="blur"
         in="fbSourceGraphic"
         stdDeviation="16.000000" /><feOffset
         id="feOffset43"
         result="offset"
         in="blur"
         dx="16.000000"
         dy="16.000000" /><feComposite
         id="feComposite44"
         result="comp1"
         operator="out"
         in="flood"
         in2="offset" /><feComposite
         id="feComposite45"
         result="comp2"
         operator="atop"
         in="comp1"
         in2="fbSourceGraphic" /></filter><filter
       style="color-interpolation-filters:sRGB;"
       inkscape:label="Drop Shadow"
       id="filter50"
       x="-0.03"
       y="-0.03"
       width="1.0725"
       height="1.0725"><feFlood
         result="flood"
         in="SourceGraphic"
         flood-opacity="0.498039"
         flood-color="rgb(0,0,0)"
         id="feFlood49" /><feGaussianBlur
         result="blur"
         in="SourceGraphic"
         stdDeviation="8.000000"
         id="feGaussianBlur49" /><feOffset
         result="offset"
         in="blur"
         dx="8.000000"
         dy="8.000000"
         id="feOffset49" /><feComposite
         result="comp1"
         operator="out"
         in="flood"
         in2="offset"
         id="feComposite49" /><feComposite
         result="comp2"
         operator="atop"
         in="comp1"
         in2="SourceGraphic"
         id="feComposite50" /></filter></defs><g
     inkscape:label="layer_1"
     inkscape:groupmode="layer"
     id="layer1"><path
       id="path3"
       style="display:inline;fill:#000000;stroke-width:0.0441717"
       inkscape:label="heart"
       d="m 18.507471,10.247149 c -2.768091,0 -5.07969,0.927842 -6.9349,2.783052 -1.85521,1.855209 -2.7830523,4.166809 -2.7830523,6.934901 0,1.354598 0.2283747,2.679728 0.6848151,3.97543 0.4564401,1.295702 1.2588162,2.716779 2.4072792,4.262787 1.148464,1.546008 2.69459,3.290571 4.638143,5.234124 1.943553,1.943553 4.402343,4.255152 7.376568,6.9349 l 2.562009,2.297175 2.56201,-2.297175 c 2.974225,-2.679748 5.433015,-4.991347 7.376568,-6.9349 1.943553,-1.943553 3.48968,-3.688116 4.638142,-5.234124 1.148464,-1.546008 1.95084,-2.967085 2.40728,-4.262787 0.45644,-1.295702 0.684815,-2.620832 0.684815,-3.97543 0,-2.768092 -0.927842,-5.079692 -2.783052,-6.934901 -1.85521,-1.85521 -4.166809,-2.783052 -6.934901,-2.783052 -1.531284,0 -2.988845,0.323902 -4.372891,0.971754 -1.384045,0.647851 -2.576747,1.560932 -3.577971,2.738843 -1.001224,-1.177911 -2.193926,-2.090992 -3.577971,-2.738843 -1.384046,-0.647852 -2.841606,-0.971754 -4.372891,-0.971754 z m 9.781763,8.034275 h 5.493118 v 1.8309 h -2.517801 l 0.36618,0.320303 c 0.747657,0.747657 1.293238,1.560374 1.63655,2.437726 0.343312,0.877352 0.515071,1.773715 0.515071,2.689212 0,1.693672 -0.507182,3.200272 -1.521857,4.520114 -1.014678,1.319843 -2.338623,2.193583 -3.971261,2.620815 V 30.77784 c 1.098597,-0.396715 1.983649,-1.072025 2.655014,-2.025668 0.671365,-0.953643 1.007203,-2.017717 1.007203,-3.192607 0,-0.686623 -0.129727,-1.354251 -0.389118,-2.002729 -0.259391,-0.648477 -0.663933,-1.247403 -1.213232,-1.796702 l -0.228967,-0.228966 v 2.242957 h -1.8309 z m -3.661801,0.228967 v 1.922236 c -1.098597,0.396716 -1.983649,1.072025 -2.655014,2.025669 -0.671365,0.953643 -1.007204,2.017717 -1.007204,3.192606 0,0.686623 0.129727,1.354252 0.389119,2.00273 0.25939,0.648478 0.663933,1.247403 1.213232,1.796702 l 0.228967,0.228966 v -2.242957 h 1.8309 v 5.493119 h -5.493118 v -1.831319 h 2.5178 l -0.36618,-0.320303 c -0.793431,-0.701882 -1.350324,-1.50287 -1.670749,-2.403109 -0.320423,-0.900239 -0.480871,-1.808331 -0.480871,-2.723829 0,-1.693671 0.507181,-3.200271 1.521857,-4.520113 1.014677,-1.319843 2.338623,-2.193166 3.971261,-2.620398 z" /></g></svg>
